<?xml version="1.0" standalone="no"?>
<!DOCTYPE svg PUBLIC "-//W3C//DTD SVG 20010904//EN"
 "http://www.w3.org/TR/2001/REC-SVG-20010904/DTD/svg10.dtd">
<svg version="1.0" xmlns="http://www.w3.org/2000/svg"
 width="370.000000pt" height="340.000000pt" viewBox="0 0 370.000000 340.000000"
 preserveAspectRatio="xMidYMid meet">

<g transform="translate(0.000000,340.000000) scale(0.100000,-0.100000)"
fill="#000000" stroke="none">
<path d="M270 1725 l0 -1455 1580 0 1580 0 0 1455 0 1455 -1580 0 -1580 0 0
-1455z m3040 1140 l0 -195 -1460 0 -1460 0 0 195 0 195 1460 0 1460 0 0 -195z
m0 -1395 l0 -1080 -1460 0 -1460 0 0 1080 0 1080 1460 0 1460 0 0 -1080z"/>
<path d="M520 2860 l0 -60 60 0 60 0 0 60 0 60 -60 0 -60 0 0 -60z"/>
<path d="M780 2860 l0 -60 60 0 60 0 0 60 0 60 -60 0 -60 0 0 -60z"/>
<path d="M1030 2860 l0 -60 60 0 60 0 0 60 0 60 -60 0 -60 0 0 -60z"/>
<path d="M1322 1867 l-42 -43 0 -84 0 -84 -62 -63 -62 -63 62 -63 62 -63 0
-79 0 -79 42 -43 42 -43 80 0 80 0 -62 63 -62 63 0 84 0 85 -45 35 c-24 19
-44 38 -45 42 0 4 20 23 45 44 l45 36 0 86 0 86 62 63 62 63 -80 0 -80 0 -42
-43z"/>
<path d="M2238 1847 l62 -63 0 -86 0 -86 45 -36 c25 -21 45 -40 45 -44 -1 -4
-21 -23 -45 -42 l-45 -35 0 -85 0 -84 -62 -63 -62 -63 80 0 80 0 42 43 42 43
0 79 0 79 62 63 62 63 -62 63 -62 63 0 85 0 85 -43 42 -43 42 -79 0 -79 0 62
-63z"/>
<path d="M1563 1383 c-33 -22 -30 -64 5 -85 24 -14 30 -15 55 -2 38 20 39 75
2 92 -32 15 -35 15 -62 -5z"/>
<path d="M1823 1388 c-34 -16 -32 -74 2 -90 40 -18 75 3 75 45 0 26 -6 36 -25
45 -14 7 -27 12 -28 11 -1 0 -12 -5 -24 -11z"/>
<path d="M2073 1388 c-35 -17 -32 -73 4 -92 62 -32 116 50 58 88 -28 18 -32
19 -62 4z"/>
</g>
</svg>
